<?xml version="1.0" encoding="UTF-8"?>
<svg xmlns="http://www.w3.org/2000/svg" viewBox="0 0 1080 520" font-family="Poppins, 'Noto Sans SC', 'Helvetica Neue', Arial, sans-serif" role="img" aria-label="Layered architecture: four tinted groups with a numbered request path">
  <defs>
    <linearGradient id="arch-stage" x1="0" y1="0" x2="0" y2="1">
      <stop offset="0" stop-color="#faf9f5"/><stop offset="1" stop-color="#f5f3ea"/>
    </linearGradient>
    <pattern id="arch-dots" width="24" height="24" patternUnits="userSpaceOnUse">
      <circle cx="12" cy="12" r="1" fill="#141413" opacity="0.05"/>
    </pattern>
  </defs>
  <rect width="1080" height="520" rx="12" fill="url(#arch-stage)"/>
  <rect width="1080" height="520" rx="12" fill="url(#arch-dots)"/>

  <!-- Layer 1: PRESENTATION (blue) -->
  <rect x="36" y="44" width="1008" height="92" rx="10" fill="#e2ecf5" stroke="#c4d5e6"/>
  <rect x="36" y="44" width="4" height="92" rx="2" fill="#6a9bcc"/>
  <circle cx="62" cy="66" r="4" fill="#6a9bcc"/>
  <text x="74" y="70" font-size="10.5" font-weight="600" letter-spacing="1.2" fill="#4a7bab">PRESENTATION</text>
  <text x="1024" y="70" text-anchor="end" font-size="10" font-style="italic" fill="#8c8a7d">user-facing surfaces</text>
  <rect x="60" y="82" width="232" height="44" rx="8" fill="#ffffff" stroke="#e3e0d4"/>
  <circle cx="76" cy="97" r="3.5" fill="#6a9bcc"/>
  <text x="88" y="101" font-size="12.5" font-weight="600" fill="#141413">Web</text>
  <text x="88" y="117" font-size="9.5" fill="#6b6a5f">browser client</text>
  <rect x="306" y="82" width="232" height="44" rx="8" fill="#ffffff" stroke="#e3e0d4"/>
  <circle cx="322" cy="97" r="3.5" fill="#6a9bcc"/>
  <text x="334" y="101" font-size="12.5" font-weight="600" fill="#141413">Mobile</text>
  <text x="334" y="117" font-size="9.5" fill="#6b6a5f">iOS · Android</text>
  <rect x="552" y="82" width="232" height="44" rx="8" fill="#ffffff" stroke="#e3e0d4"/>
  <circle cx="568" cy="97" r="3.5" fill="#6a9bcc"/>
  <text x="580" y="101" font-size="12.5" font-weight="600" fill="#141413">CLI</text>
  <text x="580" y="117" font-size="9.5" fill="#6b6a5f">terminal tools</text>
  <rect x="798" y="82" width="232" height="44" rx="8" fill="#ffffff" stroke="#e3e0d4"/>
  <circle cx="814" cy="97" r="3.5" fill="#6a9bcc"/>
  <text x="826" y="101" font-size="12.5" font-weight="600" fill="#141413">API</text>
  <text x="826" y="117" font-size="9.5" fill="#6b6a5f">REST · SDK</text>

  <line x1="540" y1="140" x2="540" y2="156" stroke="#d97757" stroke-width="1.8"/>
  <polygon points="540,162 534,153 546,153" fill="#d97757"/>
  <circle cx="566" cy="151" r="9" fill="#d97757"/>
  <text x="566" y="155" text-anchor="middle" font-size="11" font-weight="600" fill="#ffffff">1</text>

  <!-- Layer 2: APPLICATION (orange) -->
  <rect x="36" y="164" width="1008" height="92" rx="10" fill="#f7e4dc" stroke="#ecccbc"/>
  <rect x="36" y="164" width="4" height="92" rx="2" fill="#d97757"/>
  <circle cx="62" cy="186" r="4" fill="#d97757"/>
  <text x="74" y="190" font-size="10.5" font-weight="600" letter-spacing="1.2" fill="#c2613f">APPLICATION</text>
  <text x="1024" y="190" text-anchor="end" font-size="10" font-style="italic" fill="#8c8a7d">coordination &amp; policy</text>
  <rect x="60" y="202" width="232" height="44" rx="8" fill="#ffffff" stroke="#e3e0d4"/>
  <circle cx="76" cy="217" r="3.5" fill="#d97757"/>
  <text x="88" y="221" font-size="12.5" font-weight="600" fill="#141413">Router</text>
  <text x="88" y="237" font-size="9.5" fill="#6b6a5f">match &amp; dispatch</text>
  <rect x="306" y="202" width="232" height="44" rx="8" fill="#ffffff" stroke="#e3e0d4"/>
  <circle cx="322" cy="217" r="3.5" fill="#d97757"/>
  <text x="334" y="221" font-size="12.5" font-weight="600" fill="#141413">Orchestrator</text>
  <text x="334" y="237" font-size="9.5" fill="#6b6a5f">plan · collect · merge</text>
  <rect x="552" y="202" width="232" height="44" rx="8" fill="#ffffff" stroke="#e3e0d4"/>
  <circle cx="568" cy="217" r="3.5" fill="#d97757"/>
  <text x="580" y="221" font-size="12.5" font-weight="600" fill="#141413">Gateway</text>
  <text x="580" y="237" font-size="9.5" fill="#6b6a5f">tool calls · rate limits</text>
  <rect x="798" y="202" width="232" height="44" rx="8" fill="#ffffff" stroke="#e3e0d4"/>
  <circle cx="814" cy="217" r="3.5" fill="#d97757"/>
  <text x="826" y="221" font-size="12.5" font-weight="600" fill="#141413">Guard</text>
  <text x="826" y="237" font-size="9.5" fill="#6b6a5f">allow · deny · confirm</text>

  <line x1="540" y1="260" x2="540" y2="276" stroke="#d97757" stroke-width="1.8"/>
  <polygon points="540,282 534,273 546,273" fill="#d97757"/>
  <circle cx="566" cy="271" r="9" fill="#d97757"/>
  <text x="566" y="275" text-anchor="middle" font-size="11" font-weight="600" fill="#ffffff">2</text>

  <!-- Layer 3: DOMAIN (olive) -->
  <rect x="36" y="284" width="1008" height="92" rx="10" fill="#e5e9dd" stroke="#ccd3bd"/>
  <rect x="36" y="284" width="4" height="92" rx="2" fill="#788c5d"/>
  <circle cx="62" cy="306" r="4" fill="#788c5d"/>
  <text x="74" y="310" font-size="10.5" font-weight="600" letter-spacing="1.2" fill="#5d7045">DOMAIN</text>
  <text x="1024" y="310" text-anchor="end" font-size="10" font-style="italic" fill="#8c8a7d">business logic</text>
  <rect x="60" y="322" width="232" height="44" rx="8" fill="#ffffff" stroke="#e3e0d4"/>
  <circle cx="76" cy="337" r="3.5" fill="#788c5d"/>
  <text x="88" y="341" font-size="12.5" font-weight="600" fill="#141413">Billing</text>
  <text x="88" y="357" font-size="9.5" fill="#6b6a5f">invoices · ledger</text>
  <rect x="306" y="322" width="232" height="44" rx="8" fill="#ffffff" stroke="#e3e0d4"/>
  <circle cx="322" cy="337" r="3.5" fill="#788c5d"/>
  <text x="334" y="341" font-size="12.5" font-weight="600" fill="#141413">Catalog</text>
  <text x="334" y="357" font-size="9.5" fill="#6b6a5f">products · pricing</text>
  <rect x="552" y="322" width="232" height="44" rx="8" fill="#ffffff" stroke="#e3e0d4"/>
  <circle cx="568" cy="337" r="3.5" fill="#788c5d"/>
  <text x="580" y="341" font-size="12.5" font-weight="600" fill="#141413">Identity</text>
  <text x="580" y="357" font-size="9.5" fill="#6b6a5f">accounts · roles</text>
  <rect x="798" y="322" width="232" height="44" rx="8" fill="#ffffff" stroke="#e3e0d4"/>
  <circle cx="814" cy="337" r="3.5" fill="#788c5d"/>
  <text x="826" y="341" font-size="12.5" font-weight="600" fill="#141413">Reporting</text>
  <text x="826" y="357" font-size="9.5" fill="#6b6a5f">rollups · exports</text>

  <line x1="540" y1="380" x2="540" y2="396" stroke="#d97757" stroke-width="1.8"/>
  <polygon points="540,402 534,393 546,393" fill="#d97757"/>
  <circle cx="566" cy="391" r="9" fill="#d97757"/>
  <text x="566" y="395" text-anchor="middle" font-size="11" font-weight="600" fill="#ffffff">3</text>

  <!-- Layer 4: INFRASTRUCTURE (ink) -->
  <rect x="36" y="404" width="1008" height="92" rx="10" fill="#e7e4d9" stroke="#cfccc0"/>
  <rect x="36" y="404" width="4" height="92" rx="2" fill="#141413"/>
  <circle cx="62" cy="426" r="4" fill="#141413"/>
  <text x="74" y="430" font-size="10.5" font-weight="600" letter-spacing="1.2" fill="#141413">INFRASTRUCTURE</text>
  <text x="1024" y="430" text-anchor="end" font-size="10" font-style="italic" fill="#8c8a7d">runtime substrate</text>
  <rect x="60" y="442" width="232" height="44" rx="8" fill="#ffffff" stroke="#e3e0d4"/>
  <circle cx="76" cy="457" r="3.5" fill="#141413"/>
  <text x="88" y="461" font-size="12.5" font-weight="600" fill="#141413">Database</text>
  <text x="88" y="477" font-size="9.5" fill="#6b6a5f">Postgres cluster</text>
  <rect x="306" y="442" width="232" height="44" rx="8" fill="#ffffff" stroke="#e3e0d4"/>
  <circle cx="322" cy="457" r="3.5" fill="#141413"/>
  <text x="334" y="461" font-size="12.5" font-weight="600" fill="#141413">Storage</text>
  <text x="334" y="477" font-size="9.5" fill="#6b6a5f">objects · backups</text>
  <rect x="552" y="442" width="232" height="44" rx="8" fill="#ffffff" stroke="#e3e0d4"/>
  <circle cx="568" cy="457" r="3.5" fill="#141413"/>
  <text x="580" y="461" font-size="12.5" font-weight="600" fill="#141413">Network</text>
  <text x="580" y="477" font-size="9.5" fill="#6b6a5f">LB · CDN · DNS</text>
  <rect x="798" y="442" width="232" height="44" rx="8" fill="#ffffff" stroke="#e3e0d4"/>
  <circle cx="814" cy="457" r="3.5" fill="#141413"/>
  <text x="826" y="461" font-size="12.5" font-weight="600" fill="#141413">Queue</text>
  <text x="826" y="477" font-size="9.5" fill="#6b6a5f">async jobs</text>
</svg>
