<?xml version="1.0" encoding="UTF-8"?>
<svg xmlns="http://www.w3.org/2000/svg" viewBox="0 62 960 180" font-family="Poppins, 'Noto Sans SC', 'Helvetica Neue', Arial, sans-serif" role="img" aria-label="Pipeline flow: four numbered steps with a decision diamond and a fail loop">
  <defs>
    <pattern id="flow-dots" width="24" height="24" patternUnits="userSpaceOnUse">
      <circle cx="12" cy="12" r="1" fill="#141413" opacity="0.05"/>
    </pattern>
    <filter id="flow-sh" x="-20%" y="-20%" width="140%" height="140%">
      <feDropShadow dx="0" dy="1" stdDeviation="2" flood-color="#141413" flood-opacity="0.06"/>
    </filter>
    <marker id="flow-arrO" viewBox="0 0 8 8" refX="7" refY="4" markerWidth="7" markerHeight="7" orient="auto-start-reverse">
      <path d="M0,0.5 L7.5,4 L0,7.5 Z" fill="#d97757"/>
    </marker>
    <marker id="flow-arrG" viewBox="0 0 8 8" refX="7" refY="4" markerWidth="7" markerHeight="7" orient="auto-start-reverse">
      <path d="M0,0.5 L7.5,4 L0,7.5 Z" fill="#a8a496"/>
    </marker>
  </defs>
  <rect y="62" width="960" height="180" rx="16" fill="#faf9f5" stroke="#eceadf"/>
  <rect y="62" width="960" height="180" rx="16" fill="url(#flow-dots)"/>

  <!-- happy path -->
  <g fill="none" stroke="#d97757" stroke-width="1.8">
    <line x1="206" y1="132" x2="240" y2="132" marker-end="url(#flow-arrO)"/>
    <line x1="396" y1="132" x2="459" y2="132" marker-end="url(#flow-arrO)"/>
    <line x1="557" y1="132" x2="589" y2="132" marker-end="url(#flow-arrO)"/>
    <line x1="745" y1="132" x2="779" y2="132" marker-end="url(#flow-arrO)"/>
  </g>
  <text x="573" y="122" font-size="11" font-weight="600" fill="#d97757" text-anchor="middle">pass</text>

  <!-- fail loop -->
  <path d="M511,168 L511,204 Q511,212 503,212 L329,212 Q321,212 321,204 L321,174" fill="none" stroke="#a8a496" stroke-width="1.2" stroke-dasharray="4 3" marker-end="url(#flow-arrG)"/>
  <text x="416" y="204" font-size="11" fill="#8c8a7d" text-anchor="middle">fail · retry</text>

  <!-- step cards -->
  <g filter="url(#flow-sh)">
    <rect x="56" y="96" width="150" height="72" rx="10" fill="#ffffff" stroke="#d8d4c8"/>
    <rect x="246" y="96" width="150" height="72" rx="10" fill="#ffffff" stroke="#d8d4c8"/>
    <rect x="595" y="96" width="150" height="72" rx="10" fill="#ffffff" stroke="#d8d4c8"/>
    <rect x="785" y="96" width="150" height="72" rx="10" fill="#ffffff" stroke="#d8d4c8"/>
  </g>

  <!-- decision diamond: the only saturated tint block in the diagram -->
  <path d="M511,90 L557,132 L511,174 L465,132 Z" fill="#f4d9cd" stroke="#d97757" stroke-width="1.5"/>
  <text x="511" y="136" font-size="12" font-weight="600" fill="#141413" text-anchor="middle">Valid?</text>

  <!-- step 1: Fetch -->
  <rect x="70" y="118" width="28" height="28" rx="7" fill="#f0ede3"/>
  <g transform="translate(74,122)" fill="none" stroke="#6b6a5f" stroke-width="1.5" stroke-linecap="round" stroke-linejoin="round">
    <path d="M10 2v9"/><polyline points="6,8 10,12 14,8"/><path d="M3 14v2.5a1.5 1.5 0 0 0 1.5 1.5h11a1.5 1.5 0 0 0 1.5-1.5V14"/>
  </g>
  <text x="110" y="137" font-size="13" font-weight="600" fill="#141413">Fetch input</text>
  <!-- step 2: Verify -->
  <rect x="260" y="118" width="28" height="28" rx="7" fill="#f0ede3"/>
  <g transform="translate(264,122)" fill="none" stroke="#6b6a5f" stroke-width="1.5" stroke-linecap="round" stroke-linejoin="round">
    <path d="M10 2 L17 5 v5 c0 4.5 -3 7.5 -7 8 -4 -0.5 -7 -3.5 -7 -8 V5 Z"/>
    <polyline points="6.5,10 9,12.5 13.5,7.5"/>
  </g>
  <text x="300" y="137" font-size="13" font-weight="600" fill="#141413">Verify</text>
  <!-- step 3: Process -->
  <rect x="609" y="118" width="28" height="28" rx="7" fill="#f0ede3"/>
  <g transform="translate(613,122)" fill="none" stroke="#6b6a5f" stroke-width="1.5" stroke-linecap="round" stroke-linejoin="round">
    <rect x="3" y="3" width="14" height="14" rx="2"/>
    <path d="M7 10 l2 2 l4 -5"/>
  </g>
  <text x="649" y="137" font-size="13" font-weight="600" fill="#141413">Process</text>
  <!-- step 4: Publish -->
  <rect x="799" y="118" width="28" height="28" rx="7" fill="#f0ede3"/>
  <g transform="translate(803,122)" fill="none" stroke="#6b6a5f" stroke-width="1.5" stroke-linecap="round" stroke-linejoin="round">
    <path d="M17 3 L3 9 l5.5 2 2 5.5 Z"/><path d="M8.5 11 L17 3"/>
  </g>
  <text x="839" y="137" font-size="13" font-weight="600" fill="#141413">Publish</text>

  <!-- numbered badges -->
  <g font-size="11" font-weight="600" text-anchor="middle">
    <circle cx="60" cy="100" r="10" fill="#d97757"/><text x="60" y="104" fill="#ffffff">1</text>
    <circle cx="250" cy="100" r="10" fill="#d97757"/><text x="250" y="104" fill="#ffffff">2</text>
    <circle cx="599" cy="100" r="10" fill="#d97757"/><text x="599" y="104" fill="#ffffff">3</text>
    <circle cx="789" cy="100" r="10" fill="#d97757"/><text x="789" y="104" fill="#ffffff">4</text>
  </g>
</svg>
