<svg xmlns="http://www.w3.org/2000/svg" viewBox="0 0 1120 680" role="img" aria-label="Three panels above a curve, all about the same thing: how long a queue gets as the server approaches saturation. Each panel shows one server box with work waiting in front of it, drawn as small squares, at three levels of utilisation. At fifty per cent one item waits and the panel is calm. At eighty per cent four items wait. At ninety-five per cent nineteen items wait and the row runs off the edge of the panel. Below them a single chart plots average wait against utilisation from zero to nearly one hundred per cent. The line is flat and unremarkable until about seventy per cent, then bends sharply upward, and a dashed vertical marker at eighty per cent is labelled as the knee. Four points on the curve are called out with their values: one at fifty per cent, four at eighty, nine at ninety, nineteen at ninety-five. Closing notes state that the last twenty per cent of utilisation is not the last twenty per cent of the trouble, that this shape comes from one server and random arrivals so a real system with bursts bends earlier and harder, and that a queue drawing without this curve underneath lets a reader believe a busy system is merely a proportionally slower one" font-family="Poppins, 'Noto Sans SC', 'Helvetica Neue', Arial, sans-serif">
  <defs><pattern id="quDot" width="24" height="24" patternUnits="userSpaceOnUse"><circle cx="12" cy="12" r="1" fill="#141413" opacity="0.05"/></pattern>
  <marker id="quA" viewBox="0 0 8 8" refX="7" refY="4" markerWidth="7" markerHeight="7" orient="auto-start-reverse"><path d="M0,0.5 L7.5,4 L0,7.5 Z" fill="#6b6a5f"/></marker></defs>
  <rect width="1120" height="680" rx="16" fill="#faf9f5" stroke="#eceadf"/><rect width="1120" height="680" rx="16" fill="url(#quDot)"/>
  <text x="32" y="34" font-size="12" font-weight="600" letter-spacing="1.2" fill="#6b6a5f">A QUEUE IS NOT A PROPORTION &#183; THE LAST 20% OF LOAD IS NOT 20% OF THE TROUBLE</text>
  <text x="32" y="58" font-size="11.5" fill="#8c8a7d">the three panels are the same server at three loads. the curve underneath is why the third one looks the way it does, and it is the part a queue drawing usually leaves out.</text>
  <rect x="36" y="76" width="336" height="196" rx="10" fill="#ffffff" stroke="#e3e0d4" stroke-width="1.2"/>
  <text x="56" y="102" font-size="14" font-weight="600" fill="#141413">50% busy</text>
  <text x="56" y="120" font-size="10.5" fill="#6b6a5f">half the time it is idle</text>
  <rect x="286" y="148" width="62" height="44" rx="7" fill="#e2ecf5" stroke="#2f5c8a" stroke-width="1.5"/>
  <text x="317" y="166" text-anchor="middle" font-size="10.5" font-weight="600" fill="#2f5c8a">server</text>
  <text x="317" y="180" text-anchor="middle" font-size="10.5" fill="#6b6a5f">one at a time</text>
  <rect x="250" y="158" width="13" height="24" rx="2" fill="#e5e9dd" stroke="#5d7045" stroke-width="1.1"/>
  <path d="M54 170 H 70" fill="none" stroke="#6b6a5f" stroke-width="1.2" marker-end="url(#quA)"/>
  <text x="54" y="146" font-size="10" fill="#6b6a5f">arrivals</text>
  <text x="56" y="216" font-size="11.5" font-weight="700" fill="#5d7045">1 waiting</text>
  <text x="56" y="234" font-size="11" fill="#6b6a5f">the queue empties between arrivals</text>
  <rect x="392" y="76" width="336" height="196" rx="10" fill="#ffffff" stroke="#e3e0d4" stroke-width="1.2"/>
  <text x="412" y="102" font-size="14" font-weight="600" fill="#141413">80% busy</text>
  <text x="412" y="120" font-size="10.5" fill="#6b6a5f">the usual production target</text>
  <rect x="642" y="148" width="62" height="44" rx="7" fill="#e2ecf5" stroke="#2f5c8a" stroke-width="1.5"/>
  <text x="673" y="166" text-anchor="middle" font-size="10.5" font-weight="600" fill="#2f5c8a">server</text>
  <text x="673" y="180" text-anchor="middle" font-size="10.5" fill="#6b6a5f">one at a time</text>
  <rect x="606" y="158" width="13" height="24" rx="2" fill="#f0e4d8" stroke="#8a5a2a" stroke-width="1.1"/>
  <rect x="588" y="158" width="13" height="24" rx="2" fill="#f0e4d8" stroke="#8a5a2a" stroke-width="1.1"/>
  <rect x="570" y="158" width="13" height="24" rx="2" fill="#f0e4d8" stroke="#8a5a2a" stroke-width="1.1"/>
  <rect x="552" y="158" width="13" height="24" rx="2" fill="#f0e4d8" stroke="#8a5a2a" stroke-width="1.1"/>
  <path d="M410 170 H 426" fill="none" stroke="#6b6a5f" stroke-width="1.2" marker-end="url(#quA)"/>
  <text x="410" y="146" font-size="10" fill="#6b6a5f">arrivals</text>
  <text x="412" y="216" font-size="11.5" font-weight="700" fill="#8a5a2a">4 waiting</text>
  <text x="412" y="234" font-size="11" fill="#6b6a5f">four waiting, and it feels fine on a graph</text>
  <rect x="748" y="76" width="336" height="196" rx="10" fill="#ffffff" stroke="#e3e0d4" stroke-width="1.2"/>
  <text x="768" y="102" font-size="14" font-weight="600" fill="#141413">95% busy</text>
  <text x="768" y="120" font-size="10.5" fill="#6b6a5f">&#8220;we still have headroom&#8221;</text>
  <rect x="998" y="148" width="62" height="44" rx="7" fill="#e2ecf5" stroke="#2f5c8a" stroke-width="1.5"/>
  <text x="1029" y="166" text-anchor="middle" font-size="10.5" font-weight="600" fill="#2f5c8a">server</text>
  <text x="1029" y="180" text-anchor="middle" font-size="10.5" fill="#6b6a5f">one at a time</text>
  <rect x="962" y="158" width="13" height="24" rx="2" fill="#f7e4dc" stroke="#c2613f" stroke-width="1.1"/>
  <rect x="944" y="158" width="13" height="24" rx="2" fill="#f7e4dc" stroke="#c2613f" stroke-width="1.1"/>
  <rect x="926" y="158" width="13" height="24" rx="2" fill="#f7e4dc" stroke="#c2613f" stroke-width="1.1"/>
  <rect x="908" y="158" width="13" height="24" rx="2" fill="#f7e4dc" stroke="#c2613f" stroke-width="1.1"/>
  <rect x="890" y="158" width="13" height="24" rx="2" fill="#f7e4dc" stroke="#c2613f" stroke-width="1.1"/>
  <rect x="872" y="158" width="13" height="24" rx="2" fill="#f7e4dc" stroke="#c2613f" stroke-width="1.1"/>
  <rect x="854" y="158" width="13" height="24" rx="2" fill="#f7e4dc" stroke="#c2613f" stroke-width="1.1"/>
  <rect x="836" y="158" width="13" height="24" rx="2" fill="#f7e4dc" stroke="#c2613f" stroke-width="1.1"/>
  <rect x="818" y="158" width="13" height="24" rx="2" fill="#f7e4dc" stroke="#c2613f" stroke-width="1.1"/>
  <text x="812" y="176" text-anchor="end" font-size="11" font-weight="700" fill="#c2613f">+10</text>
  <path d="M766 170 H 782" fill="none" stroke="#6b6a5f" stroke-width="1.2" marker-end="url(#quA)"/>
  <text x="766" y="146" font-size="10" fill="#6b6a5f">arrivals</text>
  <text x="768" y="216" font-size="11.5" font-weight="700" fill="#c2613f">19 waiting</text>
  <text x="768" y="234" font-size="11" fill="#6b6a5f">nineteen waiting. nothing broke &#8212; it just queued</text>
  <text x="32" y="308" font-size="10.5" font-weight="600" letter-spacing="0.9" fill="#8c8a7d">AVERAGE WAIT AGAINST UTILISATION &#183; ONE SERVER, RANDOM ARRIVALS</text>
  <line x1="140" y1="520" x2="1060" y2="520" stroke="#141413" stroke-width="1.6"/>
  <line x1="140" y1="520" x2="140" y2="334" stroke="#141413" stroke-width="1.6"/>
  <line x1="140.0" y1="520" x2="140.0" y2="525" stroke="#c8c4b6" stroke-width="1"/>
  <text x="140.0" y="540" text-anchor="middle" font-size="10.5" font-family="'JetBrains Mono', monospace" fill="#6b6a5f">0%</text>
  <line x1="232.0" y1="520" x2="232.0" y2="525" stroke="#c8c4b6" stroke-width="1"/>
  <line x1="324.0" y1="520" x2="324.0" y2="525" stroke="#c8c4b6" stroke-width="1"/>
  <text x="324.0" y="540" text-anchor="middle" font-size="10.5" font-family="'JetBrains Mono', monospace" fill="#6b6a5f">20%</text>
  <line x1="416.0" y1="520" x2="416.0" y2="525" stroke="#c8c4b6" stroke-width="1"/>
  <line x1="508.0" y1="520" x2="508.0" y2="525" stroke="#c8c4b6" stroke-width="1"/>
  <text x="508.0" y="540" text-anchor="middle" font-size="10.5" font-family="'JetBrains Mono', monospace" fill="#6b6a5f">40%</text>
  <line x1="600.0" y1="520" x2="600.0" y2="525" stroke="#c8c4b6" stroke-width="1"/>
  <line x1="692.0" y1="520" x2="692.0" y2="525" stroke="#c8c4b6" stroke-width="1"/>
  <text x="692.0" y="540" text-anchor="middle" font-size="10.5" font-family="'JetBrains Mono', monospace" fill="#6b6a5f">60%</text>
  <line x1="784.0" y1="520" x2="784.0" y2="525" stroke="#c8c4b6" stroke-width="1"/>
  <line x1="876.0" y1="520" x2="876.0" y2="525" stroke="#c8c4b6" stroke-width="1"/>
  <text x="876.0" y="540" text-anchor="middle" font-size="10.5" font-family="'JetBrains Mono', monospace" fill="#6b6a5f">80%</text>
  <line x1="968.0" y1="520" x2="968.0" y2="525" stroke="#c8c4b6" stroke-width="1"/>
  <line x1="1060.0" y1="520" x2="1060.0" y2="525" stroke="#c8c4b6" stroke-width="1"/>
  <text x="1060.0" y="540" text-anchor="middle" font-size="10.5" font-family="'JetBrains Mono', monospace" fill="#6b6a5f">100%</text>
  <line x1="140" y1="511.1" x2="1060" y2="511.1" stroke="#c8c4b6" stroke-width="0.9" stroke-dasharray="3 4"/>
  <text x="132" y="515.1" text-anchor="end" font-size="10.5" font-family="'JetBrains Mono', monospace" fill="#6b6a5f">1&#215;</text>
  <line x1="140" y1="475.5" x2="1060" y2="475.5" stroke="#c8c4b6" stroke-width="0.9" stroke-dasharray="3 4"/>
  <text x="132" y="479.5" text-anchor="end" font-size="10.5" font-family="'JetBrains Mono', monospace" fill="#6b6a5f">5&#215;</text>
  <line x1="140" y1="431.0" x2="1060" y2="431.0" stroke="#c8c4b6" stroke-width="0.9" stroke-dasharray="3 4"/>
  <text x="132" y="435.0" text-anchor="end" font-size="10.5" font-family="'JetBrains Mono', monospace" fill="#6b6a5f">10&#215;</text>
  <line x1="140" y1="386.5" x2="1060" y2="386.5" stroke="#c8c4b6" stroke-width="0.9" stroke-dasharray="3 4"/>
  <text x="132" y="390.5" text-anchor="end" font-size="10.5" font-family="'JetBrains Mono', monospace" fill="#6b6a5f">15&#215;</text>
  <line x1="140" y1="342.0" x2="1060" y2="342.0" stroke="#c8c4b6" stroke-width="0.9" stroke-dasharray="3 4"/>
  <text x="132" y="346.0" text-anchor="end" font-size="10.5" font-family="'JetBrains Mono', monospace" fill="#6b6a5f">20&#215;</text>
  <text x="132" y="328" text-anchor="end" font-size="10.5" fill="#6b6a5f">wait</text>
  <polyline points="140.0,520.0 149.2,519.9 158.4,519.8 167.6,519.7 176.8,519.6 186.0,519.5 195.2,519.4 204.4,519.3 213.6,519.2 222.8,519.1 232.0,519.0 241.2,518.9 250.4,518.8 259.6,518.7 268.8,518.6 278.0,518.4 287.2,518.3 296.4,518.2 305.6,518.0 314.8,517.9 324.0,517.8 333.2,517.6 342.4,517.5 351.6,517.3 360.8,517.2 370.0,517.0 379.2,516.9 388.4,516.7 397.6,516.5 406.8,516.4 416.0,516.2 425.2,516.0 434.4,515.8 443.6,515.6 452.8,515.4 462.0,515.2 471.2,515.0 480.4,514.8 489.6,514.5 498.8,514.3 508.0,514.1 517.2,513.8 526.4,513.6 535.6,513.3 544.8,513.0 554.0,512.7 563.2,512.4 572.4,512.1 581.6,511.8 590.8,511.4 600.0,511.1 609.2,510.7 618.4,510.4 627.6,510.0 636.8,509.6 646.0,509.1 655.2,508.7 664.4,508.2 673.6,507.7 682.8,507.2 692.0,506.6 701.2,506.1 710.4,505.5 719.6,504.8 728.8,504.2 738.0,503.5 747.2,502.7 756.4,501.9 765.6,501.1 774.8,500.2 784.0,499.2 793.2,498.2 802.4,497.1 811.6,495.9 820.8,494.7 830.0,493.3 839.2,491.8 848.4,490.2 857.6,488.4 866.8,486.5 876.0,484.4 885.2,482.1 894.4,479.5 903.6,476.5 912.8,473.3 922.0,469.6 931.2,465.3 940.4,460.4 949.6,454.7 958.8,448.0 968.0,439.9 977.2,430.0 986.4,417.6 995.6,401.8 1004.8,380.6 1014.0,350.9 1023.2,342.0" fill="none" stroke="#c2613f" stroke-width="2.6" stroke-linejoin="round"/>
  <line x1="876.0" y1="520" x2="876.0" y2="334" stroke="#8a5a2a" stroke-width="1.6" stroke-dasharray="6 4"/>
  <text x="876.0" y="328" text-anchor="middle" font-size="11" font-weight="700" fill="#8a5a2a">the knee</text>
  <circle cx="600.0" cy="511.1" r="4.5" fill="#c2613f"/>
  <text x="610.0" y="505.1" font-size="10.5" font-weight="700" fill="#c2613f">1&#215; at 50%</text>
  <circle cx="876.0" cy="484.4" r="4.5" fill="#c2613f"/>
  <text x="886.0" y="478.4" font-size="10.5" font-weight="700" fill="#c2613f">4&#215; at 80%</text>
  <circle cx="968.0" cy="439.9" r="4.5" fill="#c2613f"/>
  <text x="978.0" y="433.9" font-size="10.5" font-weight="700" fill="#c2613f">9&#215; at 90%</text>
  <circle cx="1014.0" cy="350.9" r="4.5" fill="#c2613f"/>
  <text x="1024.0" y="344.9" font-size="10.5" font-weight="700" fill="#c2613f">19&#215; at 95%</text>
  <text x="32" y="562" font-size="11.5" fill="#8c8a7d">going from 50% to 80% busy costs four times the wait. going from 80% to 95% costs another five times on top of that. the axis is linear; the experience is not.</text>
  <text x="32" y="579" font-size="11.5" fill="#8c8a7d">this shape is one server with random arrivals. a real system with bursty arrivals bends earlier and harder, so treat the curve as the floor of the bad news rather than the estimate.</text>
  <text x="32" y="596" font-size="11.5" fill="#8c8a7d">the three panels above cannot make this point on their own &#8212; a reader who sees only queues believes a busy system is a proportionally slower one. the curve is what says otherwise.</text>
  <text x="32" y="613" font-size="11.5" fill="#8c8a7d">the same shape governs an interrupt handler, a ring buffer and a thread pool. what changes between them is what happens after the queue is full, not the shape of the approach.</text>
  <rect x="820" y="636" width="260" height="30" rx="7" fill="#ffffff" stroke="#141413" stroke-width="1.6"/>
  <path d="M820 643 a7 7 0 0 1 7-7 h20 v30 h-20 a7 7 0 0 1 -7 -7 Z" fill="#141413"/>
  <circle cx="833" cy="651" r="3.6" fill="#ffffff"/>
  <text x="967" y="655" text-anchor="middle" font-size="11.5" font-weight="600" fill="#141413">Queue pressure &#183; the knee</text>
</svg>
