<svg xmlns="http://www.w3.org/2000/svg" viewBox="0 0 1120 560" role="img" aria-label="One memory cell drawn three times on identical coordinates, so the only thing that differs between the panels is colour, and the three together read as one story. In the first, holding, the word line is grey dashes because it is not asserted, both access transistors are shut, the bit lines are grey because nobody drives them, and inside the ring the Q node is blue for low while the QB node is orange for high, meaning the cell currently holds a zero. In the second, writing, the word line turns green, the right bit line is driven high and the left one low, and the two ring nodes swap colours, because a write is the drivers overpowering the ring rather than asking it. In the third, reading, the word line is green again, both bit lines start high, the ring still holds what the write left, and the left bit line, the one joined to the low node, is marked as dipping by about fifty millivolts. A note states that a figure redrawn for each state hides which parts moved while a figure recoloured for each state shows it, that the colour meanings are fixed once for the whole figure, and that the fifty millivolts is a typical order of magnitude rather than a measurement" font-family="Poppins, 'Noto Sans SC', 'Helvetica Neue', Arial, sans-serif">
  <defs><pattern id="stDot" width="24" height="24" patternUnits="userSpaceOnUse"><circle cx="12" cy="12" r="1" fill="#141413" opacity="0.05"/></pattern>
  <marker id="stArr" viewBox="0 0 8 8" refX="7" refY="4" markerWidth="7" markerHeight="7" orient="auto-start-reverse"><path d="M0,0.5 L7.5,4 L0,7.5 Z" fill="#d97757"/></marker></defs>
  <rect width="1120" height="560" rx="16" fill="#faf9f5" stroke="#eceadf"/><rect width="1120" height="560" rx="16" fill="url(#stDot)"/>
  <text x="32" y="34" font-size="12" font-weight="600" letter-spacing="1.2" fill="#6b6a5f">THREE STATES, ONE GEOMETRY &#183; ONLY THE COLOUR MOVES</text>
  <text x="32" y="58" font-size="11.5" fill="#8c8a7d">the three panels share every coordinate on purpose, and read left to right as one story: the cell holds a zero, a write turns it into a one, then a read gets that one back out.</text>
  <rect x="36" y="76" width="336" height="344" rx="12" fill="#ffffff" stroke="#e3e0d4" stroke-width="1.2"/>
  <rect x="36" y="76" width="336" height="4" rx="2" fill="#a8a496"/>
  <text x="56" y="106" font-size="14" font-weight="600" fill="#141413">holding</text>
  <text x="56" y="124" font-size="11" fill="#6b6a5f">nobody is touching it</text>
  <line x1="56" y1="164" x2="352" y2="164" stroke="#a8a496" stroke-width="2.2" stroke-dasharray="6 4"/>
  <text x="56" y="156" font-size="10.5" font-weight="700" fill="#a8a496">word line</text>
  <line x1="56" y1="196" x2="56" y2="330" stroke="#a8a496" stroke-width="2.2" stroke-dasharray="6 4"/>
  <text x="56" y="346" text-anchor="start" font-size="10.5" font-weight="600" fill="#a8a496">bit line &#183; QB side</text>
  <line x1="352" y1="196" x2="352" y2="330" stroke="#a8a496" stroke-width="2.2" stroke-dasharray="6 4"/>
  <text x="352" y="346" text-anchor="end" font-size="10.5" font-weight="600" fill="#a8a496">bit line &#183; Q side</text>
  <line x1="84" y1="227" x2="84" y2="253" stroke="#a8a496" stroke-width="1.6"/>
  <line x1="90" y1="227" x2="90" y2="253" stroke="#a8a496" stroke-width="1.6"/>
  <line x1="90" y1="227" x2="106" y2="227" stroke="#a8a496" stroke-width="1.4"/>
  <line x1="90" y1="253" x2="106" y2="253" stroke="#a8a496" stroke-width="1.4"/>
  <line x1="106" y1="227" x2="106" y2="253" stroke="#a8a496" stroke-width="1.4"/>
  <line x1="68" y1="240" x2="84" y2="240" stroke="#a8a496" stroke-width="1.4"/>
  <line x1="320" y1="227" x2="320" y2="253" stroke="#a8a496" stroke-width="1.6"/>
  <line x1="326" y1="227" x2="326" y2="253" stroke="#a8a496" stroke-width="1.6"/>
  <line x1="326" y1="227" x2="342" y2="227" stroke="#a8a496" stroke-width="1.4"/>
  <line x1="326" y1="253" x2="342" y2="253" stroke="#a8a496" stroke-width="1.4"/>
  <line x1="342" y1="227" x2="342" y2="253" stroke="#a8a496" stroke-width="1.4"/>
  <line x1="304" y1="240" x2="320" y2="240" stroke="#a8a496" stroke-width="1.4"/>
  <line x1="56" y1="240" x2="68" y2="240" stroke="#a8a496" stroke-width="1.6"/>
  <line x1="106" y1="240" x2="118" y2="240" stroke="#d97757" stroke-width="1.6"/>
  <line x1="342" y1="240" x2="352" y2="240" stroke="#a8a496" stroke-width="1.6"/>
  <line x1="87" y1="164" x2="87" y2="227" stroke="#a8a496" stroke-width="1.4"/>
  <line x1="323" y1="164" x2="323" y2="227" stroke="#a8a496" stroke-width="1.4"/>
  <path d="M157.3 197.0 L190.0 212.0 L157.3 227.0 Z" fill="none" stroke="#141413" stroke-width="1.9" stroke-linejoin="round"/>
  <circle cx="192.9" cy="212.0" r="2.9" fill="none" stroke="#141413" stroke-width="1.9"/>
  <path d="M221.3 273.0 L254.0 288.0 L221.3 303.0 Z" fill="none" stroke="#141413" stroke-width="1.9" stroke-linejoin="round"/>
  <circle cx="256.9" cy="288.0" r="2.9" fill="none" stroke="#141413" stroke-width="1.9"/>
  <path d="M197 212 H 304 V 288 H 264" fill="none" stroke="#2f5c8a" stroke-width="2.2"/>
  <path d="M261 288 H 118 V 212 H 156" fill="none" stroke="#d97757" stroke-width="2.2"/>
  <circle cx="304" cy="240" r="3.6" fill="#2f5c8a"/>
  <circle cx="118" cy="240" r="3.6" fill="#d97757"/>
  <text x="310" y="204" font-size="11" font-weight="700" fill="#2f5c8a">Q</text>
  <text x="98" y="308" font-size="11" font-weight="700" fill="#d97757">QB</text>
  <text x="56" y="378" font-size="11.5" font-weight="600" fill="#141413">the word line is not asserted</text>
  <text x="56" y="396" font-size="11" fill="#6b6a5f">both access transistors are shut. the ring keeps</text>
  <text x="56" y="411" font-size="11" fill="#6b6a5f">itself, and holds a zero at Q.</text>
  <rect x="392" y="76" width="336" height="344" rx="12" fill="#ffffff" stroke="#e3e0d4" stroke-width="1.2"/>
  <rect x="392" y="76" width="336" height="4" rx="2" fill="#5d7045"/>
  <text x="412" y="106" font-size="14" font-weight="600" fill="#141413">writing</text>
  <text x="412" y="124" font-size="11" fill="#6b6a5f">the drivers win</text>
  <line x1="412" y1="164" x2="708" y2="164" stroke="#5d7045" stroke-width="2.2"/>
  <text x="412" y="156" font-size="10.5" font-weight="700" fill="#5d7045">word line</text>
  <line x1="412" y1="196" x2="412" y2="330" stroke="#2f5c8a" stroke-width="2.2"/>
  <text x="412" y="346" text-anchor="start" font-size="10.5" font-weight="600" fill="#2f5c8a">bit line &#183; QB side</text>
  <line x1="708" y1="196" x2="708" y2="330" stroke="#d97757" stroke-width="2.2"/>
  <text x="708" y="346" text-anchor="end" font-size="10.5" font-weight="600" fill="#d97757">bit line &#183; Q side</text>
  <line x1="440" y1="227" x2="440" y2="253" stroke="#5d7045" stroke-width="1.6"/>
  <line x1="446" y1="227" x2="446" y2="253" stroke="#5d7045" stroke-width="1.6"/>
  <line x1="446" y1="227" x2="462" y2="227" stroke="#5d7045" stroke-width="1.4"/>
  <line x1="446" y1="253" x2="462" y2="253" stroke="#5d7045" stroke-width="1.4"/>
  <line x1="462" y1="227" x2="462" y2="253" stroke="#5d7045" stroke-width="1.4"/>
  <line x1="424" y1="240" x2="440" y2="240" stroke="#5d7045" stroke-width="1.4"/>
  <line x1="676" y1="227" x2="676" y2="253" stroke="#5d7045" stroke-width="1.6"/>
  <line x1="682" y1="227" x2="682" y2="253" stroke="#5d7045" stroke-width="1.6"/>
  <line x1="682" y1="227" x2="698" y2="227" stroke="#5d7045" stroke-width="1.4"/>
  <line x1="682" y1="253" x2="698" y2="253" stroke="#5d7045" stroke-width="1.4"/>
  <line x1="698" y1="227" x2="698" y2="253" stroke="#5d7045" stroke-width="1.4"/>
  <line x1="660" y1="240" x2="676" y2="240" stroke="#5d7045" stroke-width="1.4"/>
  <line x1="412" y1="240" x2="424" y2="240" stroke="#2f5c8a" stroke-width="1.6"/>
  <line x1="462" y1="240" x2="474" y2="240" stroke="#2f5c8a" stroke-width="1.6"/>
  <line x1="698" y1="240" x2="708" y2="240" stroke="#d97757" stroke-width="1.6"/>
  <line x1="443" y1="164" x2="443" y2="227" stroke="#5d7045" stroke-width="1.4"/>
  <line x1="679" y1="164" x2="679" y2="227" stroke="#5d7045" stroke-width="1.4"/>
  <path d="M513.3 197.0 L546.0 212.0 L513.3 227.0 Z" fill="none" stroke="#141413" stroke-width="1.9" stroke-linejoin="round"/>
  <circle cx="548.9" cy="212.0" r="2.9" fill="none" stroke="#141413" stroke-width="1.9"/>
  <path d="M577.3 273.0 L610.0 288.0 L577.3 303.0 Z" fill="none" stroke="#141413" stroke-width="1.9" stroke-linejoin="round"/>
  <circle cx="612.9" cy="288.0" r="2.9" fill="none" stroke="#141413" stroke-width="1.9"/>
  <path d="M553 212 H 660 V 288 H 620" fill="none" stroke="#d97757" stroke-width="2.2"/>
  <path d="M617 288 H 474 V 212 H 512" fill="none" stroke="#2f5c8a" stroke-width="2.2"/>
  <circle cx="660" cy="240" r="3.6" fill="#d97757"/>
  <circle cx="474" cy="240" r="3.6" fill="#2f5c8a"/>
  <text x="666" y="204" font-size="11" font-weight="700" fill="#d97757">Q</text>
  <text x="454" y="308" font-size="11" font-weight="700" fill="#2f5c8a">QB</text>
  <text x="412" y="378" font-size="11.5" font-weight="600" fill="#141413">the bit lines are driven, and Q flips</text>
  <text x="412" y="396" font-size="11" fill="#6b6a5f">a write is not persuasion &#8212; it is overpowering</text>
  <text x="412" y="411" font-size="11" fill="#6b6a5f">the ring from outside. Q is a one now.</text>
  <rect x="748" y="76" width="336" height="344" rx="12" fill="#ffffff" stroke="#e3e0d4" stroke-width="1.2"/>
  <rect x="748" y="76" width="336" height="4" rx="2" fill="#5d7045"/>
  <text x="768" y="106" font-size="14" font-weight="600" fill="#141413">reading</text>
  <text x="768" y="124" font-size="11" fill="#6b6a5f">the cell barely whispers</text>
  <line x1="768" y1="164" x2="1064" y2="164" stroke="#5d7045" stroke-width="2.2"/>
  <text x="768" y="156" font-size="10.5" font-weight="700" fill="#5d7045">word line</text>
  <line x1="768" y1="196" x2="768" y2="330" stroke="#d97757" stroke-width="2.2"/>
  <text x="768" y="346" text-anchor="start" font-size="10.5" font-weight="600" fill="#d97757">bit line &#183; QB side</text>
  <line x1="1064" y1="196" x2="1064" y2="330" stroke="#d97757" stroke-width="2.2"/>
  <text x="1064" y="346" text-anchor="end" font-size="10.5" font-weight="600" fill="#d97757">bit line &#183; Q side</text>
  <line x1="796" y1="227" x2="796" y2="253" stroke="#5d7045" stroke-width="1.6"/>
  <line x1="802" y1="227" x2="802" y2="253" stroke="#5d7045" stroke-width="1.6"/>
  <line x1="802" y1="227" x2="818" y2="227" stroke="#5d7045" stroke-width="1.4"/>
  <line x1="802" y1="253" x2="818" y2="253" stroke="#5d7045" stroke-width="1.4"/>
  <line x1="818" y1="227" x2="818" y2="253" stroke="#5d7045" stroke-width="1.4"/>
  <line x1="780" y1="240" x2="796" y2="240" stroke="#5d7045" stroke-width="1.4"/>
  <line x1="1032" y1="227" x2="1032" y2="253" stroke="#5d7045" stroke-width="1.6"/>
  <line x1="1038" y1="227" x2="1038" y2="253" stroke="#5d7045" stroke-width="1.6"/>
  <line x1="1038" y1="227" x2="1054" y2="227" stroke="#5d7045" stroke-width="1.4"/>
  <line x1="1038" y1="253" x2="1054" y2="253" stroke="#5d7045" stroke-width="1.4"/>
  <line x1="1054" y1="227" x2="1054" y2="253" stroke="#5d7045" stroke-width="1.4"/>
  <line x1="1016" y1="240" x2="1032" y2="240" stroke="#5d7045" stroke-width="1.4"/>
  <line x1="768" y1="240" x2="780" y2="240" stroke="#d97757" stroke-width="1.6"/>
  <line x1="818" y1="240" x2="830" y2="240" stroke="#2f5c8a" stroke-width="1.6"/>
  <line x1="1054" y1="240" x2="1064" y2="240" stroke="#d97757" stroke-width="1.6"/>
  <line x1="799" y1="164" x2="799" y2="227" stroke="#5d7045" stroke-width="1.4"/>
  <line x1="1035" y1="164" x2="1035" y2="227" stroke="#5d7045" stroke-width="1.4"/>
  <path d="M869.3 197.0 L902.0 212.0 L869.3 227.0 Z" fill="none" stroke="#141413" stroke-width="1.9" stroke-linejoin="round"/>
  <circle cx="904.9" cy="212.0" r="2.9" fill="none" stroke="#141413" stroke-width="1.9"/>
  <path d="M933.3 273.0 L966.0 288.0 L933.3 303.0 Z" fill="none" stroke="#141413" stroke-width="1.9" stroke-linejoin="round"/>
  <circle cx="968.9" cy="288.0" r="2.9" fill="none" stroke="#141413" stroke-width="1.9"/>
  <path d="M909 212 H 1016 V 288 H 976" fill="none" stroke="#d97757" stroke-width="2.2"/>
  <path d="M973 288 H 830 V 212 H 868" fill="none" stroke="#2f5c8a" stroke-width="2.2"/>
  <circle cx="1016" cy="240" r="3.6" fill="#d97757"/>
  <circle cx="830" cy="240" r="3.6" fill="#2f5c8a"/>
  <text x="1022" y="204" font-size="11" font-weight="700" fill="#d97757">Q</text>
  <text x="810" y="308" font-size="11" font-weight="700" fill="#2f5c8a">QB</text>
  <rect x="780" y="262" width="86" height="20" rx="10" fill="#f7e4dc" stroke="#d97757" stroke-width="1.2"/>
  <text x="823" y="276" text-anchor="middle" font-size="10.5" font-weight="700" fill="#c2613f">&#8722;50 mV</text>
  <path d="M778 272 H 772" fill="none" stroke="#d97757" stroke-width="1.6" marker-end="url(#stArr)"/>
  <text x="768" y="378" font-size="11.5" font-weight="600" fill="#141413">both bit lines start high; one dips</text>
  <text x="768" y="396" font-size="11" fill="#6b6a5f">QB is the low node, so the QB-side bit line is the</text>
  <text x="768" y="411" font-size="11" fill="#6b6a5f">one that sags. that sag is the entire signal.</text>
  <line x1="32" y1="446" x2="58" y2="446" stroke="#d97757" stroke-width="2.6"/>
  <text x="66" y="450" font-size="11" fill="#6b6a5f">high</text>
  <line x1="120" y1="446" x2="146" y2="446" stroke="#2f5c8a" stroke-width="2.6"/>
  <text x="154" y="450" font-size="11" fill="#6b6a5f">low</text>
  <line x1="202" y1="446" x2="228" y2="446" stroke="#a8a496" stroke-width="2.6" stroke-dasharray="6 4"/>
  <text x="236" y="450" font-size="11" fill="#6b6a5f">nobody is driving it</text>
  <line x1="370" y1="446" x2="396" y2="446" stroke="#5d7045" stroke-width="2.6"/>
  <text x="404" y="450" font-size="11" fill="#6b6a5f">the word line is asserted</text>
  <text x="32" y="482" font-size="11.5" fill="#8c8a7d">a figure redrawn for every state hides which parts moved. a figure recoloured for every state shows it, and the reader stops re-reading the schematic three times.</text>
  <text x="32" y="499" font-size="11.5" fill="#8c8a7d">the colour meanings are fixed once for the whole figure. a legend that changes between panels is worse than no legend at all.</text>
  <text x="32" y="516" font-size="11.5" fill="#8c8a7d">fifty millivolts is a typical order of magnitude for a cell like this, not a measurement &#8212; the point is that it is small, not that it is fifty.</text>
  <rect x="820" y="432" width="260" height="30" rx="7" fill="#ffffff" stroke="#141413" stroke-width="1.6"/>
  <path d="M820 439 a7 7 0 0 1 7-7 h20 v30 h-20 a7 7 0 0 1 -7 -7 Z" fill="#141413"/>
  <circle cx="833" cy="447" r="3.6" fill="#ffffff"/>
  <text x="967" y="451" text-anchor="middle" font-size="11.5" font-weight="600" fill="#141413">State triptych &#183; recolour, do not redraw</text>
</svg>
