<?xml version="1.0" encoding="UTF-8"?>
<svg xmlns="http://www.w3.org/2000/svg" viewBox="0 0 1040 456" font-family="-apple-system, BlinkMacSystemFont, 'SF Pro Text', 'PingFang SC', 'Helvetica Neue', Arial, sans-serif" role="img" aria-label="Device line-art mock: phone, laptop and tablet frames in light-gray outline with placeholder screen strokes and a single blue accent">
  <rect width="1040" height="456" fill="#ffffff"/>

  <!-- ===== phone · body rx 28 · screen inset 8 (rx 20) · capsule island · home bar ===== -->
  <rect x="64" y="80" width="148" height="320" rx="28" fill="#ffffff" stroke="#aeaeb2" stroke-width="1.5"/>
  <rect x="72" y="88" width="132" height="304" rx="20" fill="none" stroke="#d2d2d7" stroke-width="1"/>
  <rect x="116" y="100" width="44" height="10" rx="5" fill="#d2d2d7"/>
  <!-- 内容区，使用时替换为实际 UI 线段 (screen content area — replace these placeholder strokes with real UI line-art) -->
  <g stroke="#d2d2d7" stroke-width="8" stroke-linecap="round">
    <line x1="96" y1="148" x2="180" y2="148"/>
    <line x1="96" y1="172" x2="152" y2="172"/>
    <line x1="96" y1="196" x2="168" y2="196"/>
    <line x1="96" y1="288" x2="172" y2="288"/>
    <line x1="96" y1="312" x2="144" y2="312"/>
  </g>
  <!-- single blue accent of the whole figure (e.g. primary CTA); delete for an all-gray mock -->
  <line x1="96" y1="236" x2="140" y2="236" stroke="#0071e3" stroke-width="8" stroke-linecap="round"/>
  <line x1="116" y1="372" x2="160" y2="372" stroke="#d2d2d7" stroke-width="4" stroke-linecap="round"/>

  <!-- ===== laptop · lid rx 12 · screen inset 12 (rx 6) · trapezoid base with thumb notch ===== -->
  <rect x="292" y="140" width="400" height="248" rx="12" fill="#ffffff" stroke="#aeaeb2" stroke-width="1.5"/>
  <rect x="304" y="152" width="376" height="224" rx="6" fill="none" stroke="#d2d2d7" stroke-width="1"/>
  <circle cx="492" cy="146" r="1.5" fill="#d2d2d7"/>
  <!-- 内容区，使用时替换为实际 UI 线段 (screen content area — replace these placeholder strokes with real UI line-art) -->
  <g stroke="#d2d2d7" stroke-width="8" stroke-linecap="round">
    <line x1="328" y1="196" x2="472" y2="196"/>
    <line x1="328" y1="220" x2="552" y2="220"/>
    <line x1="328" y1="244" x2="512" y2="244"/>
    <line x1="328" y1="296" x2="432" y2="296"/>
  </g>
  <path d="M260,388 L724,388 L714,397 Q711,400 706,400 L278,400 Q273,400 270,397 Z" fill="#ffffff" stroke="#aeaeb2" stroke-width="1.5"/>
  <path d="M468,388 Q492,397 516,388" fill="none" stroke="#aeaeb2" stroke-width="1.2"/>

  <!-- ===== tablet · body rx 20 · screen inset 8 (rx 12) · camera dot ===== -->
  <rect x="764" y="104" width="220" height="296" rx="20" fill="#ffffff" stroke="#aeaeb2" stroke-width="1.5"/>
  <rect x="772" y="112" width="204" height="280" rx="12" fill="none" stroke="#d2d2d7" stroke-width="1"/>
  <circle cx="874" cy="108" r="1.5" fill="#d2d2d7"/>
  <!-- 内容区，使用时替换为实际 UI 线段 (screen content area — replace these placeholder strokes with real UI line-art) -->
  <g stroke="#d2d2d7" stroke-width="8" stroke-linecap="round">
    <line x1="796" y1="160" x2="908" y2="160"/>
    <line x1="796" y1="184" x2="868" y2="184"/>
    <line x1="796" y1="208" x2="888" y2="208"/>
    <line x1="796" y1="256" x2="848" y2="256"/>
    <line x1="796" y1="304" x2="880" y2="304"/>
  </g>

  <!-- captions: flat, never rotated -->
  <g font-size="12" fill="#86868b" text-anchor="middle">
    <text x="138" y="428">Phone · rx 28</text>
    <text x="492" y="428">Laptop · rx 12 + base</text>
    <text x="874" y="428">Tablet · rx 20</text>
  </g>
</svg>
