<?xml version="1.0" encoding="UTF-8"?>
<svg xmlns="http://www.w3.org/2000/svg" viewBox="0 0 1120 380" role="img" aria-label="SPI mode 0 read transaction timing waveform: SCLK, CS_N, MOSI and MISO lanes; the CS_N low transfer window is highlighted in blue tint; data-valid bus cells, sampling edges at each SCLK rising edge, and tCSS / tSU timing annotations" font-family="-apple-system, BlinkMacSystemFont, 'SF Pro Text', 'PingFang SC', 'Helvetica Neue', Arial, sans-serif">
  <defs>
    <marker id="awavArr" viewBox="0 0 8 8" refX="7" refY="4" markerWidth="6" markerHeight="6" orient="auto-start-reverse">
      <path d="M0,0.5 L7.5,4 L0,7.5 Z" fill="#86868b"/>
    </marker>
  </defs>

  <!-- panel -->
  <rect x="0" y="0" width="1120" height="380" fill="#ffffff"/>

  <!-- transfer window tint: CS_N low, the single narrative focus -->
  <rect x="168" y="68" width="824" height="192" rx="8" fill="#eaf3fe"/>

  <!-- phase brackets -->
  <path d="M196,64 V60 H548 V64" fill="none" stroke="#aeaeb2" stroke-width="1"/>
  <path d="M564,64 V60 H908 V64" fill="none" stroke="#aeaeb2" stroke-width="1"/>

  <!-- data-valid bus cells -->
  <!-- MOSI 0x9F / 0x00 -->
  <path d="M196,188 L204,176 H548 L556,188 L548,200 H204 Z" fill="#f5f5f7" stroke="#6e6e73" stroke-width="1.4"/>
  <path d="M556,188 L564,176 H900 L908,188 L900,200 H564 Z" fill="#f5f5f7" stroke="#6e6e73" stroke-width="1.4"/>
  <!-- MISO 0xC2 / 0x20 -->
  <path d="M556,240 L564,228 H724 L732,240 L724,252 H564 Z" fill="#f5f5f7" stroke="#aeaeb2" stroke-width="1.4"/>
  <path d="M732,240 L740,228 H900 L908,240 L900,252 H732 Z" fill="#f5f5f7" stroke="#aeaeb2" stroke-width="1.4"/>

  <!-- sampling verticals at each SCLK rising edge -->
  <g stroke="#d2d2d7" stroke-width="1" stroke-dasharray="3 3">
    <line x1="248" y1="68" x2="248" y2="260"/>
    <line x1="336" y1="68" x2="336" y2="260"/>
    <line x1="424" y1="68" x2="424" y2="260"/>
    <line x1="512" y1="68" x2="512" y2="260"/>
    <line x1="600" y1="68" x2="600" y2="260"/>
    <line x1="688" y1="68" x2="688" y2="260"/>
    <line x1="776" y1="68" x2="776" y2="260"/>
    <line x1="864" y1="68" x2="864" y2="260"/>
  </g>

  <!-- timing reference extensions -->
  <g stroke="#aeaeb2" stroke-width="1" stroke-dasharray="2 3">
    <line x1="168" y1="148" x2="168" y2="292"/>
    <line x1="248" y1="260" x2="248" y2="292"/>
    <line x1="556" y1="252" x2="556" y2="292"/>
    <line x1="600" y1="260" x2="600" y2="292"/>
  </g>

  <!-- timing parameter arrows -->
  <line x1="168" y1="284" x2="248" y2="284" stroke="#86868b" stroke-width="1" marker-start="url(#awavArr)" marker-end="url(#awavArr)"/>
  <line x1="556" y1="284" x2="600" y2="284" stroke="#86868b" stroke-width="1" marker-start="url(#awavArr)" marker-end="url(#awavArr)"/>

  <!-- time axis -->
  <line x1="104" y1="304" x2="1096" y2="304" stroke="#d2d2d7" stroke-width="1"/>
  <g stroke="#aeaeb2" stroke-width="1">
    <line x1="248" y1="304" x2="248" y2="312"/>
    <line x1="336" y1="304" x2="336" y2="312"/>
    <line x1="424" y1="304" x2="424" y2="312"/>
    <line x1="512" y1="304" x2="512" y2="312"/>
    <line x1="600" y1="304" x2="600" y2="312"/>
    <line x1="688" y1="304" x2="688" y2="312"/>
    <line x1="776" y1="304" x2="776" y2="312"/>
    <line x1="864" y1="304" x2="864" y2="312"/>
    <line x1="952" y1="304" x2="952" y2="312"/>
  </g>

  <!-- waveforms -->
  <!-- SCLK: CPOL=0 idle low, 8 periods -->
  <path d="M104,100 H248 V76 H292 V100 H336 V76 H380 V100 H424 V76 H468 V100 H512 V76 H556 V100 H600 V76 H644 V100 H688 V76 H732 V100 H776 V76 H820 V100 H864 V76 H908 V100 H1096" fill="none" stroke="#1d1d1f" stroke-width="1.8"/>
  <!-- CS_N: the blue focus signal, frames the transfer window -->
  <path d="M104,124 H168 V148 H992 V124 H1096" fill="none" stroke="#0071e3" stroke-width="1.8"/>
  <!-- MOSI idle low, slants into / out of bus cells -->
  <path d="M104,200 H188 L196,188" fill="none" stroke="#6e6e73" stroke-width="1.4"/>
  <path d="M908,188 L916,200 H1096" fill="none" stroke="#6e6e73" stroke-width="1.4"/>
  <!-- MISO high-Z before and after the data phase -->
  <path d="M104,240 H556" fill="none" stroke="#aeaeb2" stroke-width="1.4" stroke-dasharray="5 4"/>
  <path d="M908,240 H1096" fill="none" stroke="#aeaeb2" stroke-width="1.4" stroke-dasharray="5 4"/>

  <!-- legend swatches -->
  <rect x="104" y="344" width="16" height="12" rx="2" fill="#f5f5f7" stroke="#aeaeb2" stroke-width="1"/>
  <line x1="264" y1="352" x2="284" y2="352" stroke="#aeaeb2" stroke-width="1.4" stroke-dasharray="5 4"/>
  <line x1="448" y1="344" x2="448" y2="360" stroke="#d2d2d7" stroke-width="1" stroke-dasharray="3 3"/>
  <rect x="656" y="344" width="16" height="12" rx="2" fill="#eaf3fe"/>

  <!-- text (drawn last, nothing covers it) -->
  <text x="24" y="28" font-size="12" font-weight="600" fill="#86868b">SPI mode 0 · CPOL=0 CPHA=0</text>
  <text x="1096" y="28" text-anchor="end" font-size="12" fill="#86868b">MX25L6433F flash · JEDEC ID read (0x9F)</text>

  <text x="376" y="48" text-anchor="middle" font-size="11" fill="#86868b">command phase · MOSI drives</text>
  <text x="732" y="48" text-anchor="middle" font-size="11" fill="#86868b">data phase · MISO drives</text>

  <text x="24" y="92" font-size="12" font-weight="600" fill="#1d1d1f">SCLK</text>
  <text x="24" y="140" font-size="12" font-weight="600" fill="#1d1d1f">CS_N</text>
  <text x="24" y="192" font-size="12" font-weight="600" fill="#1d1d1f">MOSI</text>
  <text x="24" y="244" font-size="12" font-weight="600" fill="#1d1d1f">MISO</text>

  <text x="376" y="192" text-anchor="middle" font-size="12.5" font-weight="600" fill="#1d1d1f">0x9F</text>
  <text x="732" y="192" text-anchor="middle" font-size="12.5" font-weight="600" fill="#1d1d1f">0x00</text>
  <text x="644" y="244" text-anchor="middle" font-size="12.5" font-weight="600" fill="#1d1d1f">0xC2</text>
  <text x="820" y="244" text-anchor="middle" font-size="12.5" font-weight="600" fill="#1d1d1f">0x20</text>

  <text x="208" y="272" text-anchor="middle" font-size="11" fill="#86868b">tCSS</text>
  <text x="608" y="288" font-size="11" fill="#86868b">tSU ≥ 5 ns</text>

  <g font-size="11" fill="#86868b" text-anchor="middle">
    <text x="248" y="328">t0</text>
    <text x="336" y="328">t1</text>
    <text x="424" y="328">t2</text>
    <text x="512" y="328">t3</text>
    <text x="600" y="328">t4</text>
    <text x="688" y="328">t5</text>
    <text x="776" y="328">t6</text>
    <text x="864" y="328">t7</text>
    <text x="952" y="328">t8</text>
  </g>

  <g font-size="11" fill="#86868b">
    <text x="128" y="356">data-valid window</text>
    <text x="292" y="356">high-Z (not driven)</text>
    <text x="456" y="356">sampling edge · SCLK rising</text>
    <text x="680" y="356">transfer window · CS_N low</text>
    <text x="1096" y="356" text-anchor="end">SCLK 25 MHz · bit period 40 ns</text>
  </g>
</svg>
