<?xml version="1.0" encoding="UTF-8"?>
<svg xmlns="http://www.w3.org/2000/svg" viewBox="0 0 1120 380" role="img" aria-label="Scheduler timeline: CFS run view across CPU 0 to CPU 2 over a 12 ms window where the traced task app: render runs on CPU 0 from 0 to 4 ms, is preempted by the threaded eth0 IRQ at 4 ms, then migrates to CPU 2 and runs from 5 to 9 ms while kworker/u8 runs periodically on CPU 1" font-family="-apple-system, BlinkMacSystemFont, 'SF Pro Text', 'PingFang SC', 'Helvetica Neue', Arial, sans-serif">
  <defs>
    <marker id="aschArrB" viewBox="0 0 8 8" refX="7" refY="4" markerWidth="7" markerHeight="7" orient="auto-start-reverse">
      <path d="M0,0.5 L7.5,4 L0,7.5 Z" fill="#0071e3"/>
    </marker>
  </defs>

  <!-- panel -->
  <rect x="0" y="0" width="1120" height="380" fill="#ffffff"/>

  <!-- CPU 0 lane: app 0-4 ms (traced, blue focus), irq/eth0 4-5 ms, idle 5-12 ms -->
  <rect x="104" y="104" width="320" height="36" rx="8" fill="#eaf3fe" stroke="#0071e3" stroke-width="1.5"/>
  <rect x="424" y="104" width="80" height="36" rx="8" fill="#f5f5f7"/>
  <rect x="504" y="104" width="560" height="36" rx="8" fill="#ffffff" stroke="#d2d2d7" stroke-width="1"/>

  <!-- CPU 1 lane: kworker/u8 bursts every 4 ms -->
  <rect x="104" y="168" width="80" height="36" rx="8" fill="#ffffff" stroke="#d2d2d7" stroke-width="1"/>
  <rect x="184" y="168" width="120" height="36" rx="8" fill="#f5f5f7"/>
  <rect x="304" y="168" width="200" height="36" rx="8" fill="#ffffff" stroke="#d2d2d7" stroke-width="1"/>
  <rect x="504" y="168" width="120" height="36" rx="8" fill="#f5f5f7"/>
  <rect x="624" y="168" width="200" height="36" rx="8" fill="#ffffff" stroke="#d2d2d7" stroke-width="1"/>
  <rect x="824" y="168" width="120" height="36" rx="8" fill="#f5f5f7"/>
  <rect x="944" y="168" width="120" height="36" rx="8" fill="#ffffff" stroke="#d2d2d7" stroke-width="1"/>

  <!-- CPU 2 lane: idle 0-5 ms, app continuation 5-9 ms (traced), idle 9-12 ms -->
  <rect x="104" y="232" width="400" height="36" rx="8" fill="#ffffff" stroke="#d2d2d7" stroke-width="1"/>
  <rect x="504" y="232" width="320" height="36" rx="8" fill="#eaf3fe" stroke="#0071e3" stroke-width="1.5"/>
  <rect x="824" y="232" width="240" height="36" rx="8" fill="#ffffff" stroke="#d2d2d7" stroke-width="1"/>

  <!-- IRQ preemption marker at 4 ms: ink, not blue -->
  <rect x="380" y="56" width="88" height="24" rx="12" fill="#1d1d1f"/>
  <line x1="424" y1="80" x2="424" y2="104" stroke="#1d1d1f" stroke-width="1"/>

  <!-- migration arrow: traced task leaves CPU 0 at 4 ms, resumes on CPU 2 at 5 ms -->
  <path d="M408,140 V208 Q408,216 416,216 H504 Q512,216 512,224 V232" fill="none" stroke="#0071e3" stroke-width="1.2" stroke-dasharray="5 4" marker-end="url(#aschArrB)"/>

  <!-- time axis -->
  <line x1="104" y1="288" x2="1064" y2="288" stroke="#d2d2d7" stroke-width="1"/>
  <g stroke="#aeaeb2" stroke-width="1">
    <line x1="104" y1="288" x2="104" y2="296"/>
    <line x1="264" y1="288" x2="264" y2="296"/>
    <line x1="424" y1="288" x2="424" y2="296"/>
    <line x1="584" y1="288" x2="584" y2="296"/>
    <line x1="744" y1="288" x2="744" y2="296"/>
    <line x1="904" y1="288" x2="904" y2="296"/>
    <line x1="1064" y1="288" x2="1064" y2="296"/>
  </g>

  <!-- legend swatches -->
  <rect x="104" y="344" width="16" height="12" rx="3" fill="#f5f5f7"/>
  <rect x="320" y="344" width="16" height="12" rx="3" fill="#ffffff" stroke="#d2d2d7" stroke-width="1"/>
  <rect x="424" y="344" width="16" height="12" rx="3" fill="#eaf3fe" stroke="#0071e3" stroke-width="1"/>

  <!-- text layer (drawn last, nothing covers it) -->
  <text x="24" y="28" font-size="12" font-weight="600" fill="#86868b">CFS run view · 12 ms window</text>
  <text x="1096" y="28" text-anchor="end" font-size="12" fill="#86868b">trace-cmd record -e sched_switch -e sched_migrate_task</text>

  <text x="424" y="72" text-anchor="middle" font-size="11" font-weight="600" fill="#ffffff">IRQ · eth0</text>

  <text x="24" y="128" font-size="12" font-weight="600" fill="#1d1d1f">CPU 0</text>
  <text x="24" y="192" font-size="12" font-weight="600" fill="#1d1d1f">CPU 1</text>
  <text x="24" y="256" font-size="12" font-weight="600" fill="#1d1d1f">CPU 2</text>

  <text x="116" y="128" font-size="12" font-weight="600" fill="#1d1d1f">app: render</text>
  <text x="436" y="128" font-size="12" font-weight="600" fill="#1d1d1f">irq/eth0</text>
  <text x="516" y="128" font-size="12" fill="#86868b">idle</text>

  <text x="116" y="192" font-size="12" fill="#86868b">idle</text>
  <text x="196" y="192" font-size="12" font-weight="600" fill="#1d1d1f">kworker/u8</text>
  <text x="316" y="192" font-size="12" fill="#86868b">idle</text>
  <text x="516" y="192" font-size="12" font-weight="600" fill="#1d1d1f">kworker/u8</text>
  <text x="636" y="192" font-size="12" fill="#86868b">idle</text>
  <text x="836" y="192" font-size="12" font-weight="600" fill="#1d1d1f">kworker/u8</text>
  <text x="956" y="192" font-size="12" fill="#86868b">idle</text>

  <text x="528" y="220" font-size="11" fill="#86868b">migrate · load balance</text>

  <text x="116" y="256" font-size="12" fill="#86868b">idle</text>
  <text x="516" y="256" font-size="12" font-weight="600" fill="#1d1d1f">app: render</text>
  <text x="836" y="256" font-size="12" fill="#86868b">idle</text>

  <g font-size="11" fill="#86868b" text-anchor="middle">
    <text x="104" y="312">0</text>
    <text x="264" y="312">2</text>
    <text x="424" y="312">4</text>
    <text x="584" y="312">6</text>
    <text x="744" y="312">8</text>
    <text x="904" y="312">10</text>
    <text x="1064" y="312">12</text>
  </g>
  <text x="1084" y="312" font-size="11" fill="#86868b">ms</text>

  <g font-size="11" fill="#86868b">
    <text x="128" y="356">task block · CFS / workqueue</text>
    <text x="344" y="356">idle</text>
    <text x="448" y="356">app: render · traced task</text>
    <text x="1096" y="356" text-anchor="end">axis marks every 2 ms · HZ=1000</text>
  </g>
</svg>
